<?xml version="1.0" encoding="UTF-8" standalone="no"?>
<svg
   xmlns:dc="http://purl.org/dc/elements/1.1/"
   xmlns:cc="http://creativecommons.org/ns#"
   xmlns:rdf="http://www.w3.org/1999/02/22-rdf-syntax-ns#"
   xmlns:svg="http://www.w3.org/2000/svg"
   xmlns="http://www.w3.org/2000/svg"
   width="256"
   height="256"
   viewBox="0 0 67.733332 67.733335"
   version="1.1"
   id="svg8">
  <defs
     id="defs2" />
  <metadata
     id="metadata5">
    <rdf:RDF>
      <cc:Work
         rdf:about="">
        <dc:format>image/svg+xml</dc:format>
        <dc:type
           rdf:resource="http://purl.org/dc/dcmitype/StillImage" />
        <dc:title></dc:title>
      </cc:Work>
    </rdf:RDF>
  </metadata>
  <path
     id="path3047"
     style="fill:#020100;fill-opacity:1;stroke:none;stroke-width:0.35622px;stroke-linecap:butt;stroke-linejoin:miter;stroke-opacity:1"
     d="M 50.151616,9.6136678 C 43.058622,9.649481 36.122484,9.6196678 29.029672,9.5696215 19.571805,18.938014 10.233885,28.427112 0.85386714,37.873377 l -0.0595004,-4.6e-4 0.0300002,0.03 -0.0304002,0.0306 0.0604004,-4.8e-4 L 20.982149,58.09623 c 6.882366,0.05261 13.697232,0.04298 20.668466,0.0678 1.31714,-1.317156 2.634294,-2.6343 3.951445,-3.951446 l -0.008,3.7e-4 c 4.458715,-4.549324 8.993221,-8.968761 13.504369,-13.446368 l -37.882778,-0.0338 -4.200388,4.239788 c 11.827389,0.04279 21.480752,-0.04731 32.219811,0.0674 l -9.123989,9.17023 -17.524305,-0.007 -16.251127,-16.300256 24.35378,-24.41376 17.478544,0.0677 c 4.236588,4.252886 8.457664,8.521095 12.674523,12.793514 l -25.096134,-0.0353 -3.940616,3.898355 31.069584,0.0246 0.11007,6.532313 3.942616,-3.969186 0.0113,-6.441792 4.8e-4,-4.9e-4 -4.7e-4,-4.8e-4 z" />
</svg>
